<?xml version="1.0" encoding="utf-8"?>
<svg viewBox="0 0 500 500" xmlns="http://www.w3.org/2000/svg" xmlns:bx="https://boxy-svg.com">
  <path style="fill: rgb(216, 216, 216);" transform="matrix(-0.371973, 0.489764, -0.489764, -0.371973, 238.506683, 108.973579)" d="M 169.863 83.798 L 194.137 83.798 L 199.259 120.871 A 64.481 64.481 0 0 1 213.728 126.865 L 243.564 104.272 L 260.728 121.436 L 238.135 151.272 A 64.481 64.481 0 0 1 244.129 165.741 L 281.202 170.863 L 281.202 195.137 L 244.129 200.259 A 64.481 64.481 0 0 1 238.135 214.728 L 260.728 244.564 L 243.564 261.728 L 213.728 239.135 A 64.481 64.481 0 0 1 199.259 245.129 L 194.137 282.202 L 169.863 282.202 L 164.741 245.129 A 64.481 64.481 0 0 1 150.272 239.135 L 120.436 261.728 L 103.272 244.564 L 125.865 214.728 A 64.481 64.481 0 0 1 119.871 200.259 L 82.798 195.137 L 82.798 170.863 L 119.871 165.741 A 64.481 64.481 0 0 1 125.865 151.272 L 103.272 121.436 L 120.436 104.272 L 150.272 126.865 A 64.481 64.481 0 0 1 164.741 120.871 Z M 182 153.239 A 29.761 29.761 0 0 0 182 212.761 A 29.761 29.761 0 0 0 182 153.239" bx:shape="cog 182 183 29.761 64.481 99.202 0.38 8 1@4cca357a"/>
  <path d="M 107.829 204.793 L 106.869 204.793 L 106.869 154.443 L 87.399 154.443 L 87.399 153.493 L 127.299 153.493 L 127.299 154.443 L 107.829 154.443 L 107.829 204.793 ZM 156.369 203.843 L 187.429 203.843 L 187.429 204.793 L 155.419 204.793 L 155.419 153.493 L 187.429 153.493 L 187.429 154.443 L 156.369 154.443 L 156.369 178.293 L 179.739 178.293 L 179.739 179.243 L 156.369 179.243 L 156.369 203.843 ZM 239.119 154.443 L 218.409 154.443 L 218.409 181.893 L 239.119 181.893 C 243.046 181.893 245.672 180.943 246.999 179.043 C 248.332 177.143 248.999 174.453 248.999 170.973 L 248.999 164.323 C 248.999 161.41 248.189 159.033 246.569 157.193 C 244.956 155.36 242.472 154.443 239.119 154.443 Z M 218.409 182.753 L 218.409 204.793 L 217.459 204.793 L 217.459 153.493 L 239.119 153.493 C 242.786 153.493 245.509 154.523 247.289 156.583 C 249.056 158.643 249.939 161.223 249.939 164.323 L 249.939 170.873 C 249.939 173.793 249.559 176.186 248.799 178.053 C 248.039 179.92 246.522 181.2 244.249 181.893 L 245.289 181.893 C 249.156 181.893 252.039 182.766 253.939 184.513 C 255.839 186.253 256.789 188.77 256.789 192.063 L 256.789 204.793 L 255.839 204.793 L 255.839 192.063 C 255.839 188.963 254.982 186.636 253.269 185.083 C 251.556 183.53 248.896 182.753 245.289 182.753 L 218.409 182.753 ZM 309.704 154.443 L 288.994 154.443 L 288.994 181.893 L 309.704 181.893 C 313.631 181.893 316.257 180.943 317.584 179.043 C 318.917 177.143 319.584 174.453 319.584 170.973 L 319.584 164.323 C 319.584 161.41 318.774 159.033 317.154 157.193 C 315.541 155.36 313.057 154.443 309.704 154.443 Z M 288.994 182.753 L 288.994 204.793 L 288.044 204.793 L 288.044 153.493 L 309.704 153.493 C 313.371 153.493 316.094 154.523 317.874 156.583 C 319.641 158.643 320.524 161.223 320.524 164.323 L 320.524 170.873 C 320.524 173.793 320.144 176.186 319.384 178.053 C 318.624 179.92 317.107 181.2 314.834 181.893 L 315.874 181.893 C 319.741 181.893 322.624 182.766 324.524 184.513 C 326.424 186.253 327.374 188.77 327.374 192.063 L 327.374 204.793 L 326.424 204.793 L 326.424 192.063 C 326.424 188.963 325.567 186.636 323.854 185.083 C 322.141 183.53 319.481 182.753 315.874 182.753 L 288.994 182.753 ZM 373.629 188.543 L 372.969 188.543 L 372.969 204.793 L 372.019 204.793 L 372.019 188.543 L 371.069 188.543 C 369.676 188.543 368.426 188.226 367.319 187.593 C 366.212 186.96 365.152 185.946 364.139 184.553 L 354.919 171.733 C 354.226 170.78 353.812 169.67 353.679 168.403 C 353.559 167.136 353.499 165.81 353.499 164.423 L 353.499 153.493 L 354.439 153.493 L 354.439 164.423 C 354.439 165.75 354.506 167 354.639 168.173 C 354.766 169.346 355.146 170.406 355.779 171.353 L 364.989 184.183 C 365.816 185.443 366.766 186.33 367.839 186.843 C 368.919 187.343 369.996 187.593 371.069 187.593 L 373.629 187.593 C 374.836 187.593 375.929 187.326 376.909 186.793 C 377.889 186.253 378.856 185.383 379.809 184.183 L 389.309 171.353 C 389.942 170.526 390.322 169.496 390.449 168.263 C 390.576 167.03 390.639 165.75 390.639 164.423 L 390.639 153.493 L 391.589 153.493 L 391.589 164.423 C 391.589 165.81 391.542 167.123 391.449 168.363 C 391.349 169.596 390.919 170.72 390.159 171.733 L 380.659 184.553 C 379.652 185.946 378.592 186.96 377.479 187.593 C 376.372 188.226 375.089 188.543 373.629 188.543 Z" transform="matrix(1, 0, 0, 1, 0, 0)" style="fill: rgb(51, 51, 51); white-space: pre;"/>
  <path d="M 49.093 225.135 L 84.053 264.465 L 84.053 224.375 L 85.013 224.375 L 85.013 275.675 L 84.053 275.675 L 84.053 265.885 L 48.143 225.605 C 48.083 225.545 48.006 225.485 47.913 225.425 C 47.82 225.358 47.74 225.325 47.673 225.325 C 47.606 225.325 47.56 225.358 47.533 225.425 C 47.5 225.485 47.483 225.545 47.483 225.605 L 47.483 275.675 L 46.533 275.675 L 46.533 225.425 C 46.533 225.038 46.66 224.752 46.913 224.565 C 47.166 224.372 47.42 224.275 47.673 224.275 C 47.926 224.275 48.15 224.338 48.343 224.465 C 48.53 224.598 48.78 224.822 49.093 225.135 ZM 155.608 275.675 L 136.708 275.675 C 133.221 275.675 130.368 275.455 128.148 275.015 C 125.935 274.568 124.195 273.855 122.928 272.875 C 121.661 271.895 120.791 270.628 120.318 269.075 C 119.845 267.522 119.608 265.638 119.608 263.425 L 119.608 236.815 C 119.608 232.322 120.621 229.125 122.648 227.225 C 124.675 225.325 128.728 224.375 134.808 224.375 L 151.238 224.375 L 151.238 225.325 L 134.808 225.325 C 129.235 225.325 125.465 226.195 123.498 227.935 C 121.538 229.682 120.558 232.642 120.558 236.815 L 120.558 263.425 C 120.558 267.538 121.648 270.452 123.828 272.165 C 126.015 273.872 130.308 274.725 136.708 274.725 L 154.658 274.725 L 154.658 256.585 L 155.608 256.585 L 155.608 275.675 ZM 189.728 263.995 L 189.728 224.375 L 190.678 224.375 L 190.678 263.995 C 190.678 267.535 191.928 270.398 194.428 272.585 C 196.928 274.772 201.695 275.865 208.728 275.865 C 215.761 275.865 220.545 274.772 223.078 272.585 C 225.605 270.398 226.868 267.535 226.868 263.995 L 226.868 224.375 L 227.828 224.375 L 227.828 263.995 C 227.828 267.788 226.495 270.875 223.828 273.255 C 221.175 275.628 216.141 276.815 208.728 276.815 C 201.315 276.815 196.295 275.628 193.668 273.255 C 191.041 270.875 189.728 267.788 189.728 263.995 ZM 280.938 259.425 L 280.278 259.425 L 280.278 275.675 L 279.328 275.675 L 279.328 259.425 L 278.378 259.425 C 276.985 259.425 275.735 259.108 274.628 258.475 C 273.521 257.842 272.461 256.828 271.448 255.435 L 262.228 242.615 C 261.535 241.662 261.121 240.552 260.988 239.285 C 260.868 238.018 260.808 236.692 260.808 235.305 L 260.808 224.375 L 261.748 224.375 L 261.748 235.305 C 261.748 236.632 261.815 237.882 261.948 239.055 C 262.075 240.228 262.455 241.288 263.088 242.235 L 272.298 255.065 C 273.125 256.325 274.075 257.212 275.148 257.725 C 276.228 258.225 277.305 258.475 278.378 258.475 L 280.938 258.475 C 282.145 258.475 283.238 258.208 284.218 257.675 C 285.198 257.135 286.165 256.265 287.118 255.065 L 296.618 242.235 C 297.251 241.408 297.631 240.378 297.758 239.145 C 297.885 237.912 297.948 236.632 297.948 235.305 L 297.948 224.375 L 298.898 224.375 L 298.898 235.305 C 298.898 236.692 298.851 238.005 298.758 239.245 C 298.658 240.478 298.228 241.602 297.468 242.615 L 287.968 255.435 C 286.961 256.828 285.901 257.842 284.788 258.475 C 283.681 259.108 282.398 259.425 280.938 259.425 ZM 333.303 274.725 L 364.363 274.725 L 364.363 275.675 L 332.353 275.675 L 332.353 224.375 L 364.363 224.375 L 364.363 225.325 L 333.303 225.325 L 333.303 249.175 L 356.673 249.175 L 356.673 250.125 L 333.303 250.125 L 333.303 274.725 ZM 398.863 225.135 L 433.823 264.465 L 433.823 224.375 L 434.783 224.375 L 434.783 275.675 L 433.823 275.675 L 433.823 265.885 L 397.913 225.605 C 397.853 225.545 397.776 225.485 397.683 225.425 C 397.59 225.358 397.51 225.325 397.443 225.325 C 397.376 225.325 397.33 225.358 397.303 225.425 C 397.27 225.485 397.253 225.545 397.253 225.605 L 397.253 275.675 L 396.303 275.675 L 396.303 225.425 C 396.303 225.038 396.43 224.752 396.683 224.565 C 396.936 224.372 397.19 224.275 397.443 224.275 C 397.696 224.275 397.92 224.338 398.113 224.465 C 398.3 224.598 398.55 224.822 398.863 225.135 Z" transform="matrix(1, 0, 0, 1, 0, 0)" style="fill: rgb(51, 51, 51); white-space: pre;"/>
  <path d="M 67.723 256.955 L 48.143 256.955 L 48.143 275.675 L 47.203 275.675 L 47.203 224.375 L 67.723 224.375 C 70.696 224.375 73.116 224.708 74.983 225.375 C 76.856 226.035 78.296 226.935 79.303 228.075 C 80.323 229.215 81.023 230.578 81.403 232.165 C 81.783 233.745 81.973 235.455 81.973 237.295 L 81.973 244.325 C 81.973 246.158 81.783 247.852 81.403 249.405 C 81.023 250.958 80.323 252.288 79.303 253.395 C 78.296 254.508 76.856 255.382 74.983 256.015 C 73.116 256.642 70.696 256.955 67.723 256.955 Z M 48.143 225.325 L 48.143 256.015 L 67.723 256.015 C 70.51 256.015 72.773 255.728 74.513 255.155 C 76.253 254.582 77.6 253.775 78.553 252.735 C 79.5 251.688 80.146 250.452 80.493 249.025 C 80.846 247.598 81.023 246.032 81.023 244.325 L 81.023 237.295 C 81.023 235.588 80.846 234.005 80.493 232.545 C 80.146 231.085 79.5 229.818 78.553 228.745 C 77.6 227.672 76.253 226.832 74.513 226.225 C 72.773 225.625 70.51 225.325 67.723 225.325 L 48.143 225.325 ZM 135.462 225.325 L 114.752 225.325 L 114.752 252.775 L 135.462 252.775 C 139.389 252.775 142.015 251.825 143.342 249.925 C 144.675 248.025 145.342 245.335 145.342 241.855 L 145.342 235.205 C 145.342 232.292 144.532 229.915 142.912 228.075 C 141.299 226.242 138.815 225.325 135.462 225.325 Z M 114.752 253.635 L 114.752 275.675 L 113.802 275.675 L 113.802 224.375 L 135.462 224.375 C 139.129 224.375 141.852 225.405 143.632 227.465 C 145.399 229.525 146.282 232.105 146.282 235.205 L 146.282 241.755 C 146.282 244.675 145.902 247.068 145.142 248.935 C 144.382 250.802 142.865 252.082 140.592 252.775 L 141.632 252.775 C 145.499 252.775 148.382 253.648 150.282 255.395 C 152.182 257.135 153.132 259.652 153.132 262.945 L 153.132 275.675 L 152.182 275.675 L 152.182 262.945 C 152.182 259.845 151.325 257.518 149.612 255.965 C 147.899 254.412 145.239 253.635 141.632 253.635 L 114.752 253.635 ZM 223.43 236.065 L 223.43 264.085 C 223.43 267.885 222.067 270.972 219.34 273.345 C 216.62 275.718 211.557 276.905 204.15 276.905 C 196.737 276.905 191.7 275.718 189.04 273.345 C 186.38 270.972 185.05 267.885 185.05 264.085 L 185.05 236.065 C 185.05 232.258 186.38 229.168 189.04 226.795 C 191.7 224.422 196.737 223.235 204.15 223.235 C 211.557 223.235 216.62 224.422 219.34 226.795 C 222.067 229.168 223.43 232.258 223.43 236.065 Z M 186 236.065 L 186 264.085 C 186 267.632 187.267 270.498 189.8 272.685 C 192.334 274.865 197.117 275.955 204.15 275.955 C 211.177 275.955 215.987 274.865 218.58 272.685 C 221.18 270.498 222.48 267.632 222.48 264.085 L 222.48 236.065 C 222.48 232.518 221.18 229.652 218.58 227.465 C 215.987 225.278 211.177 224.185 204.15 224.185 C 197.117 224.185 192.334 225.278 189.8 227.465 C 187.267 229.652 186 232.518 186 236.065 ZM 293.354 275.675 L 274.454 275.675 C 270.967 275.675 268.114 275.455 265.894 275.015 C 263.68 274.568 261.94 273.855 260.674 272.875 C 259.407 271.895 258.537 270.628 258.064 269.075 C 257.59 267.522 257.354 265.638 257.354 263.425 L 257.354 236.815 C 257.354 232.322 258.367 229.125 260.394 227.225 C 262.42 225.325 266.474 224.375 272.554 224.375 L 288.984 224.375 L 288.984 225.325 L 272.554 225.325 C 266.98 225.325 263.21 226.195 261.244 227.935 C 259.284 229.682 258.304 232.642 258.304 236.815 L 258.304 263.425 C 258.304 267.538 259.394 270.452 261.574 272.165 C 263.76 273.872 268.054 274.725 274.454 274.725 L 292.404 274.725 L 292.404 256.585 L 293.354 256.585 L 293.354 275.675 ZM 349.412 225.325 L 328.702 225.325 L 328.702 252.775 L 349.412 252.775 C 353.339 252.775 355.966 251.825 357.292 249.925 C 358.626 248.025 359.292 245.335 359.292 241.855 L 359.292 235.205 C 359.292 232.292 358.482 229.915 356.862 228.075 C 355.249 226.242 352.766 225.325 349.412 225.325 Z M 328.702 253.635 L 328.702 275.675 L 327.752 275.675 L 327.752 224.375 L 349.412 224.375 C 353.079 224.375 355.802 225.405 357.582 227.465 C 359.349 229.525 360.232 232.105 360.232 235.205 L 360.232 241.755 C 360.232 244.675 359.852 247.068 359.092 248.935 C 358.332 250.802 356.816 252.082 354.542 252.775 L 355.582 252.775 C 359.449 252.775 362.332 253.648 364.232 255.395 C 366.132 257.135 367.082 259.652 367.082 262.945 L 367.082 275.675 L 366.132 275.675 L 366.132 262.945 C 366.132 259.845 365.276 257.518 363.562 255.965 C 361.849 254.412 359.189 253.635 355.582 253.635 L 328.702 253.635 ZM 399.856 255.435 L 399.856 258.385 L 436.906 258.385 L 436.906 255.435 C 436.906 253.728 436.762 252.145 436.476 250.685 C 436.189 249.232 435.826 247.872 435.386 246.605 L 428.836 231.115 C 428.136 229.468 427.406 228.092 426.646 226.985 C 425.886 225.878 424.619 225.325 422.846 225.325 L 413.536 225.325 C 411.636 225.325 410.306 225.878 409.546 226.985 C 408.786 228.092 408.089 229.438 407.456 231.025 L 401.376 246.605 C 400.929 247.872 400.566 249.232 400.286 250.685 C 399.999 252.145 399.856 253.728 399.856 255.435 Z M 437.856 275.675 L 436.906 275.675 L 436.906 259.335 L 399.856 259.335 L 399.856 275.675 L 398.906 275.675 L 398.906 255.435 C 398.906 253.662 399.049 252.032 399.336 250.545 C 399.616 249.058 400.012 247.618 400.526 246.225 L 406.596 230.645 C 407.296 228.872 408.089 227.382 408.976 226.175 C 409.862 224.975 411.382 224.375 413.536 224.375 L 422.846 224.375 C 424.932 224.375 426.406 224.975 427.266 226.175 C 428.119 227.382 428.926 228.905 429.686 230.745 L 436.246 246.225 C 436.752 247.618 437.146 249.058 437.426 250.545 C 437.712 252.032 437.856 253.662 437.856 255.435 L 437.856 275.675 ZM 495.234 247.645 C 496.374 247.645 497.201 247.392 497.714 246.885 C 498.221 246.385 499.011 245.312 500.084 243.665 L 511.674 225.995 C 512.054 225.355 512.481 224.925 512.954 224.705 C 513.427 224.485 513.921 224.375 514.434 224.375 L 516.044 224.375 C 516.931 224.375 517.581 224.612 517.994 225.085 C 518.407 225.565 518.614 226.308 518.614 227.315 L 518.614 275.675 L 517.654 275.675 L 517.654 227.315 C 517.654 226.815 517.544 226.358 517.324 225.945 C 517.104 225.532 516.677 225.325 516.044 225.325 L 514.624 225.325 C 514.177 225.325 513.794 225.388 513.474 225.515 C 513.161 225.642 512.814 226.022 512.434 226.655 L 500.844 244.135 C 499.704 245.848 498.834 247.018 498.234 247.645 C 497.634 248.278 496.634 248.595 495.234 248.595 C 493.847 248.595 492.851 248.278 492.244 247.645 C 491.644 247.018 490.774 245.848 489.634 244.135 L 478.044 226.655 C 477.664 226.022 477.301 225.642 476.954 225.515 C 476.601 225.388 476.204 225.325 475.764 225.325 L 474.334 225.325 C 473.701 225.325 473.291 225.532 473.104 225.945 C 472.911 226.358 472.814 226.815 472.814 227.315 L 472.814 275.675 L 471.874 275.675 L 471.874 227.315 C 471.874 226.308 472.077 225.565 472.484 225.085 C 472.897 224.612 473.514 224.375 474.334 224.375 L 475.954 224.375 C 476.461 224.375 476.967 224.485 477.474 224.705 C 477.981 224.925 478.424 225.355 478.804 225.995 L 490.394 243.665 C 491.474 245.312 492.264 246.385 492.764 246.885 C 493.277 247.392 494.101 247.645 495.234 247.645 ZM 578.076 247.645 C 579.216 247.645 580.042 247.392 580.556 246.885 C 581.062 246.385 581.852 245.312 582.926 243.665 L 594.516 225.995 C 594.896 225.355 595.322 224.925 595.796 224.705 C 596.269 224.485 596.762 224.375 597.276 224.375 L 598.886 224.375 C 599.772 224.375 600.422 224.612 600.836 225.085 C 601.249 225.565 601.456 226.308 601.456 227.315 L 601.456 275.675 L 600.496 275.675 L 600.496 227.315 C 600.496 226.815 600.386 226.358 600.166 225.945 C 599.946 225.532 599.519 225.325 598.886 225.325 L 597.466 225.325 C 597.019 225.325 596.636 225.388 596.316 225.515 C 596.002 225.642 595.656 226.022 595.276 226.655 L 583.686 244.135 C 582.546 245.848 581.676 247.018 581.076 247.645 C 580.476 248.278 579.476 248.595 578.076 248.595 C 576.689 248.595 575.692 248.278 575.086 247.645 C 574.486 247.018 573.616 245.848 572.476 244.135 L 560.886 226.655 C 560.506 226.022 560.142 225.642 559.796 225.515 C 559.442 225.388 559.046 225.325 558.606 225.325 L 557.176 225.325 C 556.542 225.325 556.132 225.532 555.946 225.945 C 555.752 226.358 555.656 226.815 555.656 227.315 L 555.656 275.675 L 554.716 275.675 L 554.716 227.315 C 554.716 226.308 554.919 225.565 555.326 225.085 C 555.739 224.612 556.356 224.375 557.176 224.375 L 558.796 224.375 C 559.302 224.375 559.809 224.485 560.316 224.705 C 560.822 224.925 561.266 225.355 561.646 225.995 L 573.236 243.665 C 574.316 245.312 575.106 246.385 575.606 246.885 C 576.119 247.392 576.942 247.645 578.076 247.645 ZM 638.787 274.725 L 669.847 274.725 L 669.847 275.675 L 637.837 275.675 L 637.837 224.375 L 669.847 224.375 L 669.847 225.325 L 638.787 225.325 L 638.787 249.175 L 662.157 249.175 L 662.157 250.125 L 638.787 250.125 L 638.787 274.725 ZM 723.727 225.325 L 703.017 225.325 L 703.017 252.775 L 723.727 252.775 C 727.653 252.775 730.28 251.825 731.607 249.925 C 732.94 248.025 733.607 245.335 733.607 241.855 L 733.607 235.205 C 733.607 232.292 732.797 229.915 731.177 228.075 C 729.563 226.242 727.08 225.325 723.727 225.325 Z M 703.017 253.635 L 703.017 275.675 L 702.067 275.675 L 702.067 224.375 L 723.727 224.375 C 727.393 224.375 730.117 225.405 731.897 227.465 C 733.663 229.525 734.547 232.105 734.547 235.205 L 734.547 241.755 C 734.547 244.675 734.167 247.068 733.407 248.935 C 732.647 250.802 731.13 252.082 728.857 252.775 L 729.897 252.775 C 733.763 252.775 736.647 253.648 738.547 255.395 C 740.447 257.135 741.397 259.652 741.397 262.945 L 741.397 275.675 L 740.447 275.675 L 740.447 262.945 C 740.447 259.845 739.59 257.518 737.877 255.965 C 736.163 254.412 733.503 253.635 729.897 253.635 L 703.017 253.635 Z" transform="matrix(0.4876130521297455, 0, 0, 0.4134950041770935, 46.5558967590332, 239.11163330078125)" style="fill: rgb(51, 51, 51); white-space: pre;"/>
  <line style="stroke: rgb(0, 0, 0); stroke-dasharray: 5px;" x1="25.83" y1="301.626" x2="457.565" y2="301.011"/>
</svg>