<?xml version="1.0" encoding="utf-8"?>
<svg viewBox="0 0 500 500" xmlns="http://www.w3.org/2000/svg">
  <path stroke = "#000000" stroke-width = "1" d="M 107.829 204.793 L 106.869 204.793 L 106.869 154.443 L 87.399 154.443 L 87.399 153.493 L 127.299 153.493 L 127.299 154.443 L 107.829 154.443 L 107.829 204.793 ZM 156.369 203.843 L 187.429 203.843 L 187.429 204.793 L 155.419 204.793 L 155.419 153.493 L 187.429 153.493 L 187.429 154.443 L 156.369 154.443 L 156.369 178.293 L 179.739 178.293 L 179.739 179.243 L 156.369 179.243 L 156.369 203.843 ZM 239.119 154.443 L 218.409 154.443 L 218.409 181.893 L 239.119 181.893 C 243.046 181.893 245.672 180.943 246.999 179.043 C 248.332 177.143 248.999 174.453 248.999 170.973 L 248.999 164.323 C 248.999 161.41 248.189 159.033 246.569 157.193 C 244.956 155.36 242.472 154.443 239.119 154.443 Z M 218.409 182.753 L 218.409 204.793 L 217.459 204.793 L 217.459 153.493 L 239.119 153.493 C 242.786 153.493 245.509 154.523 247.289 156.583 C 249.056 158.643 249.939 161.223 249.939 164.323 L 249.939 170.873 C 249.939 173.793 249.559 176.186 248.799 178.053 C 248.039 179.92 246.522 181.2 244.249 181.893 L 245.289 181.893 C 249.156 181.893 252.039 182.766 253.939 184.513 C 255.839 186.253 256.789 188.77 256.789 192.063 L 256.789 204.793 L 255.839 204.793 L 255.839 192.063 C 255.839 188.963 254.982 186.636 253.269 185.083 C 251.556 183.53 248.896 182.753 245.289 182.753 L 218.409 182.753 ZM 309.704 154.443 L 288.994 154.443 L 288.994 181.893 L 309.704 181.893 C 313.631 181.893 316.257 180.943 317.584 179.043 C 318.917 177.143 319.584 174.453 319.584 170.973 L 319.584 164.323 C 319.584 161.41 318.774 159.033 317.154 157.193 C 315.541 155.36 313.057 154.443 309.704 154.443 Z M 288.994 182.753 L 288.994 204.793 L 288.044 204.793 L 288.044 153.493 L 309.704 153.493 C 313.371 153.493 316.094 154.523 317.874 156.583 C 319.641 158.643 320.524 161.223 320.524 164.323 L 320.524 170.873 C 320.524 173.793 320.144 176.186 319.384 178.053 C 318.624 179.92 317.107 181.2 314.834 181.893 L 315.874 181.893 C 319.741 181.893 322.624 182.766 324.524 184.513 C 326.424 186.253 327.374 188.77 327.374 192.063 L 327.374 204.793 L 326.424 204.793 L 326.424 192.063 C 326.424 188.963 325.567 186.636 323.854 185.083 C 322.141 183.53 319.481 182.753 315.874 182.753 L 288.994 182.753 ZM 373.629 188.543 L 372.969 188.543 L 372.969 204.793 L 372.019 204.793 L 372.019 188.543 L 371.069 188.543 C 369.676 188.543 368.426 188.226 367.319 187.593 C 366.212 186.96 365.152 185.946 364.139 184.553 L 354.919 171.733 C 354.226 170.78 353.812 169.67 353.679 168.403 C 353.559 167.136 353.499 165.81 353.499 164.423 L 353.499 153.493 L 354.439 153.493 L 354.439 164.423 C 354.439 165.75 354.506 167 354.639 168.173 C 354.766 169.346 355.146 170.406 355.779 171.353 L 364.989 184.183 C 365.816 185.443 366.766 186.33 367.839 186.843 C 368.919 187.343 369.996 187.593 371.069 187.593 L 373.629 187.593 C 374.836 187.593 375.929 187.326 376.909 186.793 C 377.889 186.253 378.856 185.383 379.809 184.183 L 389.309 171.353 C 389.942 170.526 390.322 169.496 390.449 168.263 C 390.576 167.03 390.639 165.75 390.639 164.423 L 390.639 153.493 L 391.589 153.493 L 391.589 164.423 C 391.589 165.81 391.542 167.123 391.449 168.363 C 391.349 169.596 390.919 170.72 390.159 171.733 L 380.659 184.553 C 379.652 185.946 378.592 186.96 377.479 187.593 C 376.372 188.226 375.089 188.543 373.629 188.543 Z" transform="matrix(1, 0, 0, 1, 0, 0)" style="fill: rgb(51, 51, 51); white-space: pre;"/>
  <path stroke = "#000000" stroke-width = "1" d="M 49.093 225.135 L 84.053 264.465 L 84.053 224.375 L 85.013 224.375 L 85.013 275.675 L 84.053 275.675 L 84.053 265.885 L 48.143 225.605 C 48.083 225.545 48.006 225.485 47.913 225.425 C 47.82 225.358 47.74 225.325 47.673 225.325 C 47.606 225.325 47.56 225.358 47.533 225.425 C 47.5 225.485 47.483 225.545 47.483 225.605 L 47.483 275.675 L 46.533 275.675 L 46.533 225.425 C 46.533 225.038 46.66 224.752 46.913 224.565 C 47.166 224.372 47.42 224.275 47.673 224.275 C 47.926 224.275 48.15 224.338 48.343 224.465 C 48.53 224.598 48.78 224.822 49.093 225.135 ZM 155.608 275.675 L 136.708 275.675 C 133.221 275.675 130.368 275.455 128.148 275.015 C 125.935 274.568 124.195 273.855 122.928 272.875 C 121.661 271.895 120.791 270.628 120.318 269.075 C 119.845 267.522 119.608 265.638 119.608 263.425 L 119.608 236.815 C 119.608 232.322 120.621 229.125 122.648 227.225 C 124.675 225.325 128.728 224.375 134.808 224.375 L 151.238 224.375 L 151.238 225.325 L 134.808 225.325 C 129.235 225.325 125.465 226.195 123.498 227.935 C 121.538 229.682 120.558 232.642 120.558 236.815 L 120.558 263.425 C 120.558 267.538 121.648 270.452 123.828 272.165 C 126.015 273.872 130.308 274.725 136.708 274.725 L 154.658 274.725 L 154.658 256.585 L 155.608 256.585 L 155.608 275.675 ZM 189.728 263.995 L 189.728 224.375 L 190.678 224.375 L 190.678 263.995 C 190.678 267.535 191.928 270.398 194.428 272.585 C 196.928 274.772 201.695 275.865 208.728 275.865 C 215.761 275.865 220.545 274.772 223.078 272.585 C 225.605 270.398 226.868 267.535 226.868 263.995 L 226.868 224.375 L 227.828 224.375 L 227.828 263.995 C 227.828 267.788 226.495 270.875 223.828 273.255 C 221.175 275.628 216.141 276.815 208.728 276.815 C 201.315 276.815 196.295 275.628 193.668 273.255 C 191.041 270.875 189.728 267.788 189.728 263.995 ZM 280.938 259.425 L 280.278 259.425 L 280.278 275.675 L 279.328 275.675 L 279.328 259.425 L 278.378 259.425 C 276.985 259.425 275.735 259.108 274.628 258.475 C 273.521 257.842 272.461 256.828 271.448 255.435 L 262.228 242.615 C 261.535 241.662 261.121 240.552 260.988 239.285 C 260.868 238.018 260.808 236.692 260.808 235.305 L 260.808 224.375 L 261.748 224.375 L 261.748 235.305 C 261.748 236.632 261.815 237.882 261.948 239.055 C 262.075 240.228 262.455 241.288 263.088 242.235 L 272.298 255.065 C 273.125 256.325 274.075 257.212 275.148 257.725 C 276.228 258.225 277.305 258.475 278.378 258.475 L 280.938 258.475 C 282.145 258.475 283.238 258.208 284.218 257.675 C 285.198 257.135 286.165 256.265 287.118 255.065 L 296.618 242.235 C 297.251 241.408 297.631 240.378 297.758 239.145 C 297.885 237.912 297.948 236.632 297.948 235.305 L 297.948 224.375 L 298.898 224.375 L 298.898 235.305 C 298.898 236.692 298.851 238.005 298.758 239.245 C 298.658 240.478 298.228 241.602 297.468 242.615 L 287.968 255.435 C 286.961 256.828 285.901 257.842 284.788 258.475 C 283.681 259.108 282.398 259.425 280.938 259.425 ZM 333.303 274.725 L 364.363 274.725 L 364.363 275.675 L 332.353 275.675 L 332.353 224.375 L 364.363 224.375 L 364.363 225.325 L 333.303 225.325 L 333.303 249.175 L 356.673 249.175 L 356.673 250.125 L 333.303 250.125 L 333.303 274.725 ZM 398.863 225.135 L 433.823 264.465 L 433.823 224.375 L 434.783 224.375 L 434.783 275.675 L 433.823 275.675 L 433.823 265.885 L 397.913 225.605 C 397.853 225.545 397.776 225.485 397.683 225.425 C 397.59 225.358 397.51 225.325 397.443 225.325 C 397.376 225.325 397.33 225.358 397.303 225.425 C 397.27 225.485 397.253 225.545 397.253 225.605 L 397.253 275.675 L 396.303 275.675 L 396.303 225.425 C 396.303 225.038 396.43 224.752 396.683 224.565 C 396.936 224.372 397.19 224.275 397.443 224.275 C 397.696 224.275 397.92 224.338 398.113 224.465 C 398.3 224.598 398.55 224.822 398.863 225.135 Z" transform="matrix(1, 0, 0, 1, 0, 0)" style="fill: rgb(51, 51, 51); white-space: pre;"/>
</svg>
