<?xml version="1.0" encoding="utf-8"?>
<svg viewBox="0 0 500 500" xmlns="http://www.w3.org/2000/svg" xmlns:bx="https://boxy-svg.com">
  <path d="M 118.395 111.081 L 116.185 111.081 L 116.185 105.851 L 106.465 105.851 L 105.965 104.641 L 113.715 90.501 L 116.015 90.501 L 108.535 103.941 L 116.185 103.941 L 116.185 98.451 L 116.655 96.551 L 118.395 96.551 L 118.395 103.941 L 121.225 103.941 L 121.225 105.481 L 118.395 105.851 L 118.395 111.081 ZM 133.155 111.171 L 129.145 111.171 C 128.158 111.171 127.278 110.998 126.505 110.651 C 125.725 110.304 125.118 109.771 124.685 109.051 C 124.245 108.331 124.025 107.404 124.025 106.271 L 124.025 95.351 C 124.025 94.244 124.245 93.324 124.685 92.591 C 125.118 91.851 125.725 91.291 126.505 90.911 C 127.278 90.524 128.158 90.331 129.145 90.331 L 133.155 90.331 C 134.308 90.331 135.248 90.541 135.975 90.961 C 136.708 91.381 137.245 91.964 137.585 92.711 C 137.931 93.458 138.105 94.338 138.105 95.351 L 138.105 106.271 C 138.105 107.964 137.651 109.204 136.745 109.991 C 135.845 110.778 134.648 111.171 133.155 111.171 Z M 129.565 109.181 L 132.645 109.181 C 133.785 109.181 134.608 108.894 135.115 108.321 C 135.615 107.754 135.865 106.978 135.865 105.991 L 135.865 95.511 C 135.865 94.451 135.598 93.658 135.065 93.131 C 134.538 92.611 133.761 92.351 132.735 92.351 L 129.515 92.351 C 128.501 92.351 127.708 92.628 127.135 93.181 C 126.555 93.728 126.265 94.504 126.265 95.511 L 126.265 105.991 C 126.265 107.051 126.558 107.848 127.145 108.381 C 127.731 108.914 128.538 109.181 129.565 109.181 ZM 153.395 111.081 L 151.185 111.081 L 151.185 105.851 L 141.465 105.851 L 140.965 104.641 L 148.715 90.501 L 151.015 90.501 L 143.535 103.941 L 151.185 103.941 L 151.185 98.451 L 151.655 96.551 L 153.395 96.551 L 153.395 103.941 L 156.225 103.941 L 156.225 105.481 L 153.395 105.851 L 153.395 111.081 Z" transform="matrix(6.539731979370117, 0, 0, 8.63061237335205, -611.2822265625, -686.8975219726562)" style="fill: rgb(255, 70, 70); white-space: pre;"/>
  <path d="M 99.223 329.489 L 96.133 329.489 L 96.133 301.079 L 107.443 301.079 C 108.27 301.079 109.113 301.189 109.973 301.409 C 110.833 301.629 111.636 302.052 112.383 302.679 C 113.13 303.312 113.73 304.226 114.183 305.419 C 114.63 306.619 114.853 308.196 114.853 310.149 C 114.853 312.156 114.616 313.772 114.143 314.999 C 113.67 316.219 113.053 317.156 112.293 317.809 C 111.533 318.469 110.716 318.916 109.843 319.149 C 108.963 319.376 108.113 319.489 107.293 319.489 C 106.906 319.489 106.34 319.476 105.593 319.449 C 104.846 319.429 104.056 319.399 103.223 319.359 C 102.383 319.319 101.603 319.272 100.883 319.219 C 100.163 319.172 99.61 319.136 99.223 319.109 L 99.223 329.489 Z M 99.223 303.859 L 99.223 316.749 L 106.903 316.749 C 107.803 316.749 108.626 316.556 109.373 316.169 C 110.12 315.782 110.706 315.116 111.133 314.169 C 111.56 313.216 111.773 311.889 111.773 310.189 C 111.773 308.516 111.56 307.222 111.133 306.309 C 110.706 305.396 110.146 304.759 109.453 304.399 C 108.76 304.039 108 303.859 107.173 303.859 L 99.223 303.859 ZM 118.829 329.489 L 115.659 329.489 L 125.389 301.079 L 129.329 301.079 L 139.049 329.489 L 135.889 329.489 L 133.029 321.379 L 121.609 321.379 L 118.829 329.489 Z M 127.359 303.779 L 122.379 318.599 L 132.259 318.599 L 127.359 303.779 ZM 151.363 329.679 C 149.563 329.706 148.069 329.429 146.883 328.849 C 145.696 328.269 144.769 327.389 144.103 326.209 C 143.436 325.022 142.959 323.516 142.673 321.689 C 142.393 319.862 142.253 317.702 142.253 315.209 C 142.253 312.816 142.399 310.719 142.693 308.919 C 142.993 307.112 143.503 305.612 144.223 304.419 C 144.943 303.219 145.926 302.326 147.173 301.739 C 148.419 301.146 149.983 300.849 151.863 300.849 C 152.863 300.849 153.906 300.886 154.993 300.959 C 156.073 301.039 157.126 301.156 158.153 301.309 C 159.179 301.462 160.133 301.642 161.013 301.849 L 161.013 304.169 C 160.499 304.089 159.779 304.006 158.853 303.919 C 157.926 303.826 156.889 303.756 155.743 303.709 C 154.596 303.656 153.456 303.629 152.323 303.629 C 150.469 303.629 149.036 304.009 148.023 304.769 C 147.003 305.529 146.296 306.762 145.903 308.469 C 145.503 310.182 145.303 312.442 145.303 315.249 C 145.303 317.509 145.409 319.386 145.623 320.879 C 145.843 322.372 146.213 323.556 146.733 324.429 C 147.246 325.309 147.946 325.936 148.833 326.309 C 149.719 326.682 150.846 326.869 152.213 326.869 C 153.419 326.869 154.666 326.712 155.953 326.399 C 157.239 326.092 158.333 325.759 159.233 325.399 L 159.233 317.019 L 152.363 317.019 L 152.363 314.739 C 152.849 314.666 153.443 314.602 154.143 314.549 C 154.836 314.496 155.576 314.452 156.363 314.419 C 157.143 314.379 157.933 314.359 158.733 314.359 C 159.399 314.359 160.029 314.366 160.623 314.379 C 161.216 314.392 161.733 314.436 162.173 314.509 L 162.173 329.489 L 159.933 329.489 L 159.463 327.479 C 158.536 327.946 157.359 328.422 155.933 328.909 C 154.506 329.396 152.983 329.652 151.363 329.679 ZM 174.162 329.639 C 173.549 329.639 172.895 329.582 172.202 329.469 C 171.502 329.356 170.845 329.119 170.232 328.759 C 169.612 328.399 169.109 327.852 168.722 327.119 C 168.335 326.386 168.142 325.386 168.142 324.119 L 168.142 306.789 C 168.142 305.682 168.302 304.762 168.622 304.029 C 168.949 303.296 169.382 302.719 169.922 302.299 C 170.462 301.872 171.065 301.562 171.732 301.369 C 172.405 301.176 173.075 301.079 173.742 301.079 C 175.335 301.106 176.815 301.139 178.182 301.179 C 179.542 301.212 180.835 301.249 182.062 301.289 C 183.282 301.329 184.472 301.376 185.632 301.429 L 185.632 303.899 L 174.512 303.899 C 173.512 303.899 172.715 304.169 172.122 304.709 C 171.529 305.249 171.232 306.109 171.232 307.289 L 171.232 314.009 L 183.932 314.199 L 183.932 316.559 L 171.232 316.749 L 171.232 323.429 C 171.232 324.382 171.392 325.102 171.712 325.589 C 172.039 326.076 172.472 326.399 173.012 326.559 C 173.552 326.712 174.105 326.789 174.672 326.789 L 185.632 326.789 L 185.632 329.259 C 184.445 329.332 183.202 329.396 181.902 329.449 C 180.602 329.502 179.302 329.542 178.002 329.569 C 176.709 329.596 175.429 329.619 174.162 329.639 ZM 204.804 329.489 L 201.754 329.489 L 201.754 301.079 L 204.264 301.079 L 219.084 324.199 L 219.084 301.079 L 222.134 301.079 L 222.134 329.489 L 219.624 329.489 L 204.804 306.369 L 204.804 329.489 ZM 237.84 329.719 C 236.014 329.719 234.41 329.546 233.03 329.199 C 231.657 328.852 230.514 328.189 229.6 327.209 C 228.687 326.236 228.004 324.796 227.55 322.889 C 227.104 320.982 226.88 318.486 226.88 315.399 C 226.88 312.312 227.11 309.809 227.57 307.889 C 228.037 305.976 228.734 304.509 229.66 303.489 C 230.587 302.476 231.73 301.782 233.09 301.409 C 234.457 301.036 236.04 300.849 237.84 300.849 C 239.694 300.849 241.307 301.036 242.68 301.409 C 244.06 301.782 245.207 302.476 246.12 303.489 C 247.034 304.509 247.71 305.976 248.15 307.889 C 248.584 309.809 248.8 312.312 248.8 315.399 C 248.8 318.486 248.577 320.982 248.13 322.889 C 247.677 324.796 246.994 326.236 246.08 327.209 C 245.167 328.189 244.027 328.852 242.66 329.199 C 241.3 329.546 239.694 329.719 237.84 329.719 Z M 237.84 326.979 C 239.28 326.979 240.504 326.839 241.51 326.559 C 242.51 326.272 243.327 325.726 243.96 324.919 C 244.587 324.106 245.044 322.939 245.33 321.419 C 245.61 319.906 245.75 317.899 245.75 315.399 C 245.75 312.799 245.604 310.716 245.31 309.149 C 245.017 307.576 244.554 306.392 243.92 305.599 C 243.287 304.799 242.477 304.269 241.49 304.009 C 240.497 303.756 239.28 303.629 237.84 303.629 C 236.5 303.629 235.337 303.756 234.35 304.009 C 233.357 304.269 232.534 304.799 231.88 305.599 C 231.22 306.392 230.73 307.576 230.41 309.149 C 230.09 310.716 229.93 312.799 229.93 315.399 C 229.93 317.899 230.064 319.906 230.33 321.419 C 230.604 322.939 231.047 324.106 231.66 324.919 C 232.28 325.726 233.097 326.272 234.11 326.559 C 235.13 326.839 236.374 326.979 237.84 326.979 ZM 263.35 329.489 L 260.26 329.489 L 260.26 303.859 L 251.5 303.859 L 251.5 301.079 L 272.11 301.079 L 272.11 303.859 L 263.35 303.859 L 263.35 329.489 ZM 289.202 329.489 L 286.112 329.489 L 286.112 306.789 C 286.112 305.682 286.272 304.762 286.592 304.029 C 286.918 303.296 287.352 302.719 287.892 302.299 C 288.432 301.872 289.035 301.562 289.702 301.369 C 290.375 301.176 291.045 301.079 291.712 301.079 C 292.845 301.106 294.075 301.132 295.402 301.159 C 296.722 301.186 298.085 301.216 299.492 301.249 C 300.892 301.289 302.262 301.362 303.602 301.469 L 303.602 303.899 L 292.442 303.899 C 291.415 303.899 290.618 304.182 290.052 304.749 C 289.485 305.316 289.202 306.152 289.202 307.259 L 289.202 314.629 L 301.902 314.819 L 301.902 317.179 L 289.202 317.369 L 289.202 329.489 ZM 318.262 329.719 C 316.435 329.719 314.832 329.546 313.452 329.199 C 312.079 328.852 310.935 328.189 310.022 327.209 C 309.109 326.236 308.425 324.796 307.972 322.889 C 307.525 320.982 307.302 318.486 307.302 315.399 C 307.302 312.312 307.532 309.809 307.992 307.889 C 308.459 305.976 309.155 304.509 310.082 303.489 C 311.009 302.476 312.152 301.782 313.512 301.409 C 314.879 301.036 316.462 300.849 318.262 300.849 C 320.115 300.849 321.729 301.036 323.102 301.409 C 324.482 301.782 325.629 302.476 326.542 303.489 C 327.455 304.509 328.132 305.976 328.572 307.889 C 329.005 309.809 329.222 312.312 329.222 315.399 C 329.222 318.486 328.999 320.982 328.552 322.889 C 328.099 324.796 327.415 326.236 326.502 327.209 C 325.589 328.189 324.449 328.852 323.082 329.199 C 321.722 329.546 320.115 329.719 318.262 329.719 Z M 318.262 326.979 C 319.702 326.979 320.925 326.839 321.932 326.559 C 322.932 326.272 323.749 325.726 324.382 324.919 C 325.009 324.106 325.465 322.939 325.752 321.419 C 326.032 319.906 326.172 317.899 326.172 315.399 C 326.172 312.799 326.025 310.716 325.732 309.149 C 325.439 307.576 324.975 306.392 324.342 305.599 C 323.709 304.799 322.899 304.269 321.912 304.009 C 320.919 303.756 319.702 303.629 318.262 303.629 C 316.922 303.629 315.759 303.756 314.772 304.009 C 313.779 304.269 312.955 304.799 312.302 305.599 C 311.642 306.392 311.152 307.576 310.832 309.149 C 310.512 310.716 310.352 312.799 310.352 315.399 C 310.352 317.899 310.485 319.906 310.752 321.419 C 311.025 322.939 311.469 324.106 312.082 324.919 C 312.702 325.726 313.519 326.272 314.532 326.559 C 315.552 326.839 316.795 326.979 318.262 326.979 ZM 344.545 329.719 C 342.945 329.719 341.501 329.579 340.215 329.299 C 338.928 329.012 337.828 328.529 336.915 327.849 C 336.001 327.169 335.301 326.242 334.815 325.069 C 334.328 323.896 334.085 322.436 334.085 320.689 L 334.085 301.079 L 337.165 301.079 L 337.165 320.689 C 337.165 322.309 337.455 323.569 338.035 324.469 C 338.615 325.369 339.458 326.006 340.565 326.379 C 341.671 326.752 342.998 326.939 344.545 326.939 C 346.085 326.939 347.408 326.752 348.515 326.379 C 349.621 326.006 350.465 325.369 351.045 324.469 C 351.625 323.569 351.915 322.309 351.915 320.689 L 351.915 301.079 L 355.005 301.079 L 355.005 320.689 C 355.005 322.436 354.758 323.896 354.265 325.069 C 353.778 326.242 353.078 327.169 352.165 327.849 C 351.251 328.529 350.151 329.012 348.865 329.299 C 347.578 329.579 346.138 329.719 344.545 329.719 ZM 364.142 329.489 L 361.092 329.489 L 361.092 301.079 L 363.602 301.079 L 378.422 324.199 L 378.422 301.079 L 381.472 301.079 L 381.472 329.489 L 378.962 329.489 L 364.142 306.369 L 364.142 329.489 ZM 398.139 329.489 L 386.909 329.489 L 386.909 301.079 L 398.139 301.079 C 399.865 301.079 401.322 301.396 402.509 302.029 C 403.689 302.656 404.645 303.576 405.379 304.789 C 406.112 305.996 406.645 307.479 406.979 309.239 C 407.319 311.006 407.489 313.022 407.489 315.289 C 407.489 318.269 407.139 320.816 406.439 322.929 C 405.745 325.036 404.705 326.656 403.319 327.789 C 401.925 328.922 400.199 329.489 398.139 329.489 Z M 389.999 303.859 L 389.999 326.749 L 397.909 326.749 C 399.429 326.749 400.665 326.279 401.619 325.339 C 402.572 324.399 403.279 323.072 403.739 321.359 C 404.205 319.652 404.439 317.629 404.439 315.289 C 404.439 313.176 404.309 311.392 404.049 309.939 C 403.789 308.486 403.395 307.309 402.869 306.409 C 402.342 305.509 401.669 304.859 400.849 304.459 C 400.022 304.059 399.042 303.859 397.909 303.859 L 389.999 303.859 Z" transform="matrix(1, 0, 0, 1, 0, 0)" style="fill: rgb(51, 51, 51); white-space: pre;"/>
  <path style="fill: rgb(216, 216, 216);" transform="matrix(-0.47162, 0.250862, -0.250862, -0.47162, 325.236542, 722.970459)" d="M 133.974 615.529 L 160.026 615.529 L 165.524 655.319 A 69.206 69.206 0 0 1 181.052 661.751 L 213.075 637.503 L 231.497 655.925 L 207.249 687.948 A 69.206 69.206 0 0 1 213.681 703.476 L 253.471 708.974 L 253.471 735.026 L 213.681 740.524 A 69.206 69.206 0 0 1 207.249 756.052 L 231.497 788.075 L 213.075 806.497 L 181.052 782.249 A 69.206 69.206 0 0 1 165.524 788.681 L 160.026 828.471 L 133.974 828.471 L 128.476 788.681 A 69.206 69.206 0 0 1 112.948 782.249 L 80.925 806.497 L 62.503 788.075 L 86.751 756.052 A 69.206 69.206 0 0 1 80.319 740.524 L 40.529 735.026 L 40.529 708.974 L 80.319 703.476 A 69.206 69.206 0 0 1 86.751 687.948 L 62.503 655.925 L 80.925 637.503 L 112.948 661.751 A 69.206 69.206 0 0 1 128.476 655.319 Z M 147 690.059 A 31.941 31.941 0 0 0 147 753.941 A 31.941 31.941 0 0 0 147 690.059" bx:shape="cog 147 722 31.941 69.206 106.471 0.38 8 1@f6c5ac59"/>
  <path style="fill: rgb(216, 216, 216);" transform="matrix(-0.425965, 0.322352, -0.322352, -0.425965, 834.257629, -143.676239)" d="M 807.647 39.199 L 830.353 39.199 L 835.145 73.88 A 60.321 60.321 0 0 1 848.68 79.487 L 876.592 58.352 L 892.648 74.408 L 871.513 102.32 A 60.321 60.321 0 0 1 877.12 115.855 L 911.801 120.647 L 911.801 143.353 L 877.12 148.145 A 60.321 60.321 0 0 1 871.513 161.68 L 892.648 189.592 L 876.592 205.648 L 848.68 184.513 A 60.321 60.321 0 0 1 835.145 190.12 L 830.353 224.801 L 807.647 224.801 L 802.855 190.12 A 60.321 60.321 0 0 1 789.32 184.513 L 761.408 205.648 L 745.352 189.592 L 766.487 161.68 A 60.321 60.321 0 0 1 760.88 148.145 L 726.199 143.353 L 726.199 120.647 L 760.88 115.855 A 60.321 60.321 0 0 1 766.487 102.32 L 745.352 74.408 L 761.408 58.352 L 789.32 79.487 A 60.321 60.321 0 0 1 802.855 73.88 Z M 819 104.16 A 27.84 27.84 0 0 0 819 159.84 A 27.84 27.84 0 0 0 819 104.16" bx:shape="cog 819 132 27.84 60.321 92.801 0.38 8 1@889bcbb9"/>
  <path style="fill: rgb(216, 216, 216);" transform="matrix(-0.334373, 0.416595, -0.416595, -0.334373, 166.634796, 48.710857)" d="M 132.077 21.547 L 155.923 21.547 L 160.955 57.967 A 63.344 63.344 0 0 1 175.168 63.854 L 204.479 41.66 L 221.34 58.521 L 199.146 87.832 A 63.344 63.344 0 0 1 205.033 102.045 L 241.453 107.077 L 241.453 130.923 L 205.033 135.955 A 63.344 63.344 0 0 1 199.146 150.168 L 221.34 179.479 L 204.479 196.34 L 175.168 174.146 A 63.344 63.344 0 0 1 160.955 180.033 L 155.923 216.453 L 132.077 216.453 L 127.045 180.033 A 63.344 63.344 0 0 1 112.832 174.146 L 83.521 196.34 L 66.66 179.479 L 88.854 150.168 A 63.344 63.344 0 0 1 82.967 135.955 L 46.547 130.923 L 46.547 107.077 L 82.967 102.045 A 63.344 63.344 0 0 1 88.854 87.832 L 66.66 58.521 L 83.521 41.66 L 112.832 63.854 A 63.344 63.344 0 0 1 127.045 57.967 Z M 144 89.764 A 29.236 29.236 0 0 0 144 148.236 A 29.236 29.236 0 0 0 144 89.764" bx:shape="cog 144 119 29.236 63.344 97.453 0.38 8 1@436da5ac"/>
  <path style="fill: rgb(216, 216, 216);" transform="matrix(-0.381642, 0.373773, -0.373773, -0.381642, 952.15448, 446.815369)" d="M 652.389 615.228 L 685.611 615.228 L 692.621 665.968 A 88.252 88.252 0 0 1 712.424 674.171 L 753.26 643.249 L 776.751 666.74 L 745.829 707.576 A 88.252 88.252 0 0 1 754.032 727.379 L 804.772 734.389 L 804.772 767.611 L 754.032 774.621 A 88.252 88.252 0 0 1 745.829 794.424 L 776.751 835.26 L 753.26 858.751 L 712.424 827.829 A 88.252 88.252 0 0 1 692.621 836.032 L 685.611 886.772 L 652.389 886.772 L 645.379 836.032 A 88.252 88.252 0 0 1 625.576 827.829 L 584.74 858.751 L 561.249 835.26 L 592.171 794.424 A 88.252 88.252 0 0 1 583.968 774.621 L 533.228 767.611 L 533.228 734.389 L 583.968 727.379 A 88.252 88.252 0 0 1 592.171 707.576 L 561.249 666.74 L 584.74 643.249 L 625.576 674.171 A 88.252 88.252 0 0 1 645.379 665.968 Z M 669 710.268 A 40.732 40.732 0 0 0 669 791.732 A 40.732 40.732 0 0 0 669 710.268" bx:shape="cog 669 751 40.732 88.252 135.772 0.38 8 1@2f8a21d5"/>
</svg>